<svg width="1080" height="1080" viewBox="0 0 1080 1080" xmlns="http://www.w3.org/2000/svg" xmlns:xlink="http://www.w3.org/1999/xlink">
  <defs>
    <linearGradient id="bg" x1="0%" y1="0%" x2="100%" y2="100%">
      <stop offset="0%" style="stop-color:#060a14"/>
      <stop offset="55%" style="stop-color:#0d1628"/>
      <stop offset="100%" style="stop-color:#0a1b3e"/>
    </linearGradient>
    <linearGradient id="gold" x1="0%" y1="0%" x2="100%" y2="0%">
      <stop offset="0%" style="stop-color:#c9a84c"/>
      <stop offset="50%" style="stop-color:#f5d98b"/>
      <stop offset="100%" style="stop-color:#c9a84c"/>
    </linearGradient>
    <linearGradient id="fade1" x1="0%" y1="70%" x2="0%" y2="100%">
      <stop offset="0%" style="stop-color:#0a0e1a" stop-opacity="0"/>
      <stop offset="100%" style="stop-color:#0a0e1a" stop-opacity="1"/>
    </linearGradient>
    <filter id="glow">
      <feGaussianBlur stdDeviation="6" result="coloredBlur"/>
      <feMerge><feMergeNode in="coloredBlur"/><feMergeNode in="SourceGraphic"/></feMerge>
    </filter>
    <filter id="softglow">
      <feGaussianBlur stdDeviation="34" result="coloredBlur"/>
      <feMerge><feMergeNode in="coloredBlur"/><feMergeNode in="SourceGraphic"/></feMerge>
    </filter>
    <filter id="shadow">
      <feDropShadow dx="0" dy="6" stdDeviation="14" flood-color="#000" flood-opacity="0.6"/>
    </filter>
    <clipPath id="clip1"><rect x="62" y="276" width="230" height="310" rx="14"/></clipPath>
    <clipPath id="clip2"><rect x="312" y="276" width="230" height="310" rx="14"/></clipPath>
    <clipPath id="clip3"><rect x="562" y="276" width="230" height="310" rx="14"/></clipPath>
    <clipPath id="clip4"><rect x="812" y="276" width="230" height="310" rx="14"/></clipPath>
  </defs>

  <rect width="1080" height="1080" fill="url(#bg)"/>
  <ellipse cx="540" cy="500" rx="520" ry="380" fill="#c9a84c" opacity="0.035" filter="url(#softglow)"/>

  <!-- Top label -->
  <text x="540" y="52" text-anchor="middle" font-family="Arial" font-size="11" fill="#c9a84c" letter-spacing="3" opacity="0.7">REAL CLIENT RESULTS · MULTIPLE US D2C BRANDS · HERITAGE APPARELS</text>

  <!-- Headline -->
  <text x="540" y="104" text-anchor="middle" font-family="Georgia, serif" font-size="38" font-weight="bold" fill="#f8f4ef">Proof Across</text>
  <text x="540" y="154" text-anchor="middle" font-family="Georgia, serif" font-size="58" font-weight="bold" fill="url(#gold)" filter="url(#glow)">Every Client.</text>

  <rect x="160" y="176" width="760" height="2" fill="url(#gold)" rx="1" opacity="0.35"/>
  <text x="540" y="208" text-anchor="middle" font-family="Arial" font-size="13" fill="#888" letter-spacing="1">LIVE SHOPIFY DASHBOARDS FROM OUR ACTIVE US CLIENTS</text>

  <!-- 4 screenshot cards -->
  <!-- Card 1 -->
  <rect x="62" y="220" width="230" height="370" rx="16" fill="#0f1117" stroke="#96bf48" stroke-width="1.5" filter="url(#shadow)"/>
  <rect x="62" y="220" width="230" height="36" rx="14" fill="#1a1f2e"/>
  <circle cx="80" cy="238" r="5" fill="#96bf48"/>
  <text x="90" y="242" font-family="Arial" font-size="9" fill="#96bf48">LIVE</text>
  <text x="180" y="242" text-anchor="middle" font-family="Arial" font-size="9" fill="#888">Client A</text>
  <image href="/our-client-results/3.jpg" x="62" y="256" width="230" height="310" clip-path="url(#clip1)" preserveAspectRatio="xMidYMin slice"/>
  <rect x="62" y="256" width="230" height="310" rx="14" fill="url(#fade1)"/>
  <rect x="72" y="548" width="210" height="32" rx="8" fill="#0d1a08" stroke="#96bf48" stroke-width="1"/>
  <text x="177" y="560" text-anchor="middle" font-family="Arial" font-size="9" fill="#96bf48">TODAY'S REVENUE</text>
  <text x="177" y="577" text-anchor="middle" font-family="Georgia, serif" font-size="14" font-weight="bold" fill="#96bf48">$34,808 · ↑31%</text>

  <!-- Card 2 -->
  <rect x="312" y="220" width="230" height="370" rx="16" fill="#0f1117" stroke="#f5d98b" stroke-width="1.5" filter="url(#shadow)"/>
  <rect x="312" y="220" width="230" height="36" rx="14" fill="#1a1f2e"/>
  <circle cx="330" cy="238" r="5" fill="#96bf48"/>
  <text x="340" y="242" font-family="Arial" font-size="9" fill="#96bf48">LIVE</text>
  <text x="430" y="242" text-anchor="middle" font-family="Arial" font-size="9" fill="#888">Client B</text>
  <image href="/our-client-results/5.jpg" x="312" y="256" width="230" height="310" clip-path="url(#clip2)" preserveAspectRatio="xMidYMin slice"/>
  <rect x="312" y="256" width="230" height="310" rx="14" fill="url(#fade1)"/>
  <rect x="322" y="548" width="210" height="32" rx="8" fill="#1a1400" stroke="#f5d98b" stroke-width="1"/>
  <text x="427" y="560" text-anchor="middle" font-family="Arial" font-size="9" fill="#f5d98b">YESTERDAY</text>
  <text x="427" y="577" text-anchor="middle" font-family="Georgia, serif" font-size="14" font-weight="bold" fill="#f5d98b">$6,558 · ↑73%</text>

  <!-- Card 3 -->
  <rect x="562" y="220" width="230" height="370" rx="16" fill="#0f1117" stroke="#4285f4" stroke-width="1.5" filter="url(#shadow)"/>
  <rect x="562" y="220" width="230" height="36" rx="14" fill="#1a1f2e"/>
  <circle cx="580" cy="238" r="5" fill="#96bf48"/>
  <text x="590" y="242" font-family="Arial" font-size="9" fill="#96bf48">LIVE</text>
  <text x="680" y="242" text-anchor="middle" font-family="Arial" font-size="9" fill="#888">Client C</text>
  <image href="/our-client-results/6.jpg" x="562" y="256" width="230" height="310" clip-path="url(#clip3)" preserveAspectRatio="xMidYMin slice"/>
  <rect x="562" y="256" width="230" height="310" rx="14" fill="url(#fade1)"/>
  <rect x="572" y="548" width="210" height="32" rx="8" fill="#08101a" stroke="#4285f4" stroke-width="1"/>
  <text x="677" y="560" text-anchor="middle" font-family="Arial" font-size="9" fill="#4285f4">LAST 30 DAYS</text>
  <text x="677" y="577" text-anchor="middle" font-family="Georgia, serif" font-size="14" font-weight="bold" fill="#4285f4">$10,296 · ↑13%</text>

  <!-- Card 4 -->
  <rect x="812" y="220" width="230" height="370" rx="16" fill="#0f1117" stroke="#e1306c" stroke-width="1.5" filter="url(#shadow)"/>
  <rect x="812" y="220" width="230" height="36" rx="14" fill="#1a1f2e"/>
  <circle cx="830" cy="238" r="5" fill="#96bf48"/>
  <text x="840" y="242" font-family="Arial" font-size="9" fill="#96bf48">LIVE</text>
  <text x="930" y="242" text-anchor="middle" font-family="Arial" font-size="9" fill="#888">Client D</text>
  <image href="/our-client-results/8.jpg" x="812" y="256" width="230" height="310" clip-path="url(#clip4)" preserveAspectRatio="xMidYMin slice"/>
  <rect x="812" y="256" width="230" height="310" rx="14" fill="url(#fade1)"/>
  <rect x="822" y="548" width="210" height="32" rx="8" fill="#1a0810" stroke="#e1306c" stroke-width="1"/>
  <text x="927" y="560" text-anchor="middle" font-family="Arial" font-size="9" fill="#e1306c">YESTERDAY</text>
  <text x="927" y="577" text-anchor="middle" font-family="Georgia, serif" font-size="14" font-weight="bold" fill="#e1306c">$4,565 · 127 orders</text>

  <!-- Divider -->
  <rect x="60" y="612" width="960" height="1.5" fill="url(#gold)" rx="1" opacity="0.2"/>

  <!-- Combined totals -->
  <text x="540" y="648" text-anchor="middle" font-family="Arial" font-size="12" fill="#555" letter-spacing="2">COMBINED ACROSS ALL ACTIVE HERITAGE CLIENTS</text>

  <rect x="60" y="664" width="220" height="76" rx="12" fill="#0d1420" stroke="#96bf48" stroke-width="1.5"/>
  <text x="170" y="690" text-anchor="middle" font-family="Arial" font-size="9" fill="#96bf48" letter-spacing="1">TOTAL MANAGED</text>
  <text x="170" y="728" text-anchor="middle" font-family="Georgia, serif" font-size="26" font-weight="bold" fill="#96bf48">$10M+</text>

  <rect x="305" y="664" width="220" height="76" rx="12" fill="#0d1420" stroke="#f5d98b" stroke-width="1.5"/>
  <text x="415" y="690" text-anchor="middle" font-family="Arial" font-size="9" fill="#f5d98b" letter-spacing="1">AVG ROAS</text>
  <text x="415" y="728" text-anchor="middle" font-family="Georgia, serif" font-size="26" font-weight="bold" fill="url(#gold)">6.4×</text>

  <rect x="550" y="664" width="220" height="76" rx="12" fill="#0d1420" stroke="#4285f4" stroke-width="1.5"/>
  <text x="660" y="690" text-anchor="middle" font-family="Arial" font-size="9" fill="#4285f4" letter-spacing="1">BRANDS MANAGED</text>
  <text x="660" y="728" text-anchor="middle" font-family="Georgia, serif" font-size="26" font-weight="bold" fill="#f8f4ef">500+</text>

  <rect x="795" y="664" width="225" height="76" rx="12" fill="#0d1420" stroke="#c9a84c" stroke-width="1.5"/>
  <text x="907" y="690" text-anchor="middle" font-family="Arial" font-size="9" fill="#c9a84c" letter-spacing="1">MGMT COST</text>
  <text x="907" y="728" text-anchor="middle" font-family="Georgia, serif" font-size="26" font-weight="bold" fill="url(#gold)">$5/hr</text>

  <!-- CTA -->
  <rect x="190" y="764" width="700" height="62" rx="31" fill="url(#gold)"/>
  <text x="540" y="800" text-anchor="middle" font-family="Georgia, serif" font-size="20" font-weight="bold" fill="#1a1a2e">Join These Brands → Hire Heritage at $5/Hour</text>

  <!-- Disclaimer -->
  <text x="540" y="848" text-anchor="middle" font-family="Arial" font-size="11" fill="#444">Real Shopify dashboards from our active US D2C clients. Results vary.</text>

  <!-- Bottom bar -->
  <rect x="0" y="866" width="1080" height="214" fill="#04060e"/>
  <line x1="60" y1="880" x2="1020" y2="880" stroke="#c9a84c" stroke-width="1" opacity="0.1"/>
  <text x="210" y="926" text-anchor="middle" font-family="Georgia, serif" font-size="18" font-weight="bold" fill="url(#gold)">$341K / day</text>
  <text x="210" y="946" text-anchor="middle" font-family="Arial" font-size="11" fill="#555">Best single-day</text>
  <line x1="380" y1="906" x2="380" y2="960" stroke="#c9a84c" stroke-width="1" opacity="0.15"/>
  <text x="540" y="926" text-anchor="middle" font-family="Georgia, serif" font-size="18" font-weight="bold" fill="url(#gold)">$481K / 90 days</text>
  <text x="540" y="946" text-anchor="middle" font-family="Arial" font-size="11" fill="#555">Best 90-day result</text>
  <line x1="700" y1="906" x2="700" y2="960" stroke="#c9a84c" stroke-width="1" opacity="0.15"/>
  <text x="870" y="926" text-anchor="middle" font-family="Georgia, serif" font-size="18" font-weight="bold" fill="url(#gold)">5.38% CVR</text>
  <text x="870" y="946" text-anchor="middle" font-family="Arial" font-size="11" fill="#555">Top client conversion</text>
  <text x="540" y="1002" text-anchor="middle" font-family="Georgia, serif" font-size="17" letter-spacing="4" fill="#c9a84c">HERITAGE APPARELS</text>
  <text x="540" y="1026" text-anchor="middle" font-family="Arial" font-size="11" fill="#333">heritageapparels.com/us/services/performance-marketing</text>
</svg>
