<svg width="1080" height="1080" viewBox="0 0 1080 1080" xmlns="http://www.w3.org/2000/svg">
  <defs>
    <linearGradient id="bg" x1="0%" y1="0%" x2="100%" y2="100%">
      <stop offset="0%" style="stop-color:#060a14"/>
      <stop offset="55%" style="stop-color:#1a1a2e"/>
      <stop offset="100%" style="stop-color:#0d1b3e"/>
    </linearGradient>
    <linearGradient id="gold" x1="0%" y1="0%" x2="100%" y2="0%">
      <stop offset="0%" style="stop-color:#c9a84c"/>
      <stop offset="50%" style="stop-color:#f5d98b"/>
      <stop offset="100%" style="stop-color:#c9a84c"/>
    </linearGradient>
    <linearGradient id="shopgreen" x1="0%" y1="0%" x2="100%" y2="0%">
      <stop offset="0%" style="stop-color:#96bf48"/>
      <stop offset="100%" style="stop-color:#5e8e3e"/>
    </linearGradient>
    <linearGradient id="chartfill" x1="0%" y1="0%" x2="0%" y2="100%">
      <stop offset="0%" style="stop-color:#f5d98b" stop-opacity="0.4"/>
      <stop offset="100%" style="stop-color:#c9a84c" stop-opacity="0.02"/>
    </linearGradient>
    <filter id="glow">
      <feGaussianBlur stdDeviation="6" result="coloredBlur"/>
      <feMerge><feMergeNode in="coloredBlur"/><feMergeNode in="SourceGraphic"/></feMerge>
    </filter>
    <filter id="softglow">
      <feGaussianBlur stdDeviation="32" result="coloredBlur"/>
      <feMerge><feMergeNode in="coloredBlur"/><feMergeNode in="SourceGraphic"/></feMerge>
    </filter>
  </defs>

  <rect width="1080" height="1080" fill="url(#bg)"/>
  <ellipse cx="540" cy="380" rx="520" ry="360" fill="#c9a84c" opacity="0.05" filter="url(#softglow)"/>

  <!-- Top label -->
  <text x="540" y="58" text-anchor="middle" font-family="Arial" font-size="12" fill="#c9a84c" letter-spacing="3" opacity="0.7">US D2C BRANDS · GOOGLE + META ADS MANAGEMENT</text>

  <!-- HERO PRICE - massive -->
  <text x="540" y="218" text-anchor="middle" font-family="Georgia, serif" font-size="220" font-weight="bold" fill="url(#gold)" filter="url(#glow)" letter-spacing="-8">$5</text>
  <text x="540" y="268" text-anchor="middle" font-family="Georgia, serif" font-size="42" fill="#f8f4ef">per hour to manage your</text>
  <text x="540" y="320" text-anchor="middle" font-family="Georgia, serif" font-size="42" font-weight="bold" fill="#f8f4ef">Google <tspan fill="#c9a84c">+</tspan> Meta Ads</text>

  <!-- Gold rule -->
  <rect x="160" y="342" width="760" height="2" fill="url(#gold)" rx="1" opacity="0.4"/>

  <!-- What $5/hr buys you - 3 comparison boxes -->
  <text x="540" y="378" text-anchor="middle" font-family="Arial" font-size="13" fill="#888" letter-spacing="2">WHAT ELSE $5/HOUR GETS YOU IN THE US</text>

  <!-- Coffee comparison -->
  <rect x="60" y="396" width="290" height="100" rx="12" fill="#1a1a2e" stroke="#555" stroke-width="1"/>
  <text x="205" y="432" text-anchor="middle" font-family="Arial" font-size="36">☕</text>
  <text x="205" y="462" text-anchor="middle" font-family="Arial" font-size="16" fill="#666">1 Starbucks Coffee</text>
  <text x="205" y="484" text-anchor="middle" font-family="Arial" font-size="13" fill="#444">$5.50 · One time · No ROI</text>

  <!-- Streaming -->
  <rect x="395" y="396" width="290" height="100" rx="12" fill="#1a1a2e" stroke="#555" stroke-width="1"/>
  <text x="540" y="432" text-anchor="middle" font-family="Arial" font-size="36">📺</text>
  <text x="540" y="462" text-anchor="middle" font-family="Arial" font-size="16" fill="#666">0.2 hrs Netflix</text>
  <text x="540" y="484" text-anchor="middle" font-family="Arial" font-size="13" fill="#444">$4.99 · Entertainment only</text>

  <!-- Heritage -->
  <rect x="730" y="396" width="290" height="100" rx="12" fill="#1a1a2e" stroke="#c9a84c" stroke-width="2"/>
  <text x="875" y="432" text-anchor="middle" font-family="Arial" font-size="36">📈</text>
  <text x="875" y="462" text-anchor="middle" font-family="Georgia, serif" font-size="16" font-weight="bold" fill="#f5d98b">Expert Ad Management</text>
  <text x="875" y="484" text-anchor="middle" font-family="Arial" font-size="13" fill="#c9a84c">$5 · Grows your revenue</text>

  <!-- SHOPIFY DASHBOARD -->
  <rect x="60" y="516" width="960" height="298" rx="16" fill="#0f1117" stroke="#96bf48" stroke-width="1.5" stroke-opacity="0.5"/>

  <!-- Shopify nav -->
  <rect x="60" y="516" width="960" height="42" rx="10" fill="#1a1f2e"/>
  <rect x="82" y="528" width="20" height="20" rx="4" fill="#96bf48"/>
  <text x="92" y="541" text-anchor="middle" font-family="Arial" font-size="11" font-weight="bold" fill="#fff">S</text>
  <text x="116" y="541" font-family="Arial" font-size="12" font-weight="bold" fill="#f8f4ef">YourD2CBrand</text>
  <text x="900" y="541" font-family="Arial" font-size="11" fill="#555">Overview</text>
  <text x="960" y="541" font-family="Arial" font-size="11" fill="#555">Reports</text>

  <!-- 4 KPI tiles -->
  <rect x="80" y="572" width="218" height="84" rx="10" fill="#131720" stroke="#96bf48" stroke-width="1.5"/>
  <text x="189" y="597" text-anchor="middle" font-family="Arial" font-size="10" fill="#96bf48" letter-spacing="1">TOTAL REVENUE</text>
  <text x="189" y="631" text-anchor="middle" font-family="Georgia, serif" font-size="28" font-weight="bold" fill="#f8f4ef">$76,400</text>
  <text x="189" y="649" text-anchor="middle" font-family="Arial" font-size="10" fill="#96bf48">↑ 612% vs 3 months ago</text>

  <rect x="314" y="572" width="218" height="84" rx="10" fill="#131720" stroke="#333" stroke-width="1"/>
  <text x="423" y="597" text-anchor="middle" font-family="Arial" font-size="10" fill="#888" letter-spacing="1">ORDERS</text>
  <text x="423" y="631" text-anchor="middle" font-family="Georgia, serif" font-size="28" font-weight="bold" fill="#f8f4ef">968</text>
  <text x="423" y="649" text-anchor="middle" font-family="Arial" font-size="10" fill="#96bf48">↑ from 22/month</text>

  <rect x="548" y="572" width="218" height="84" rx="10" fill="#131720" stroke="#333" stroke-width="1"/>
  <text x="657" y="597" text-anchor="middle" font-family="Arial" font-size="10" fill="#888" letter-spacing="1">AD SPEND (MANAGED)</text>
  <text x="657" y="631" text-anchor="middle" font-family="Georgia, serif" font-size="28" font-weight="bold" fill="#f8f4ef">$2,400</text>
  <text x="657" y="649" text-anchor="middle" font-family="Arial" font-size="10" fill="#c9a84c">at $5/hr · 480 hrs managed</text>

  <rect x="782" y="572" width="218" height="84" rx="10" fill="#131720" stroke="#f5d98b" stroke-width="1.5"/>
  <text x="891" y="597" text-anchor="middle" font-family="Arial" font-size="10" fill="#f5d98b" letter-spacing="1">RETURN ON MGMT FEE</text>
  <text x="891" y="631" text-anchor="middle" font-family="Georgia, serif" font-size="28" font-weight="bold" fill="#f5d98b">31.8×</text>
  <text x="891" y="649" text-anchor="middle" font-family="Arial" font-size="10" fill="#f5d98b">ROI on management cost</text>

  <!-- Revenue chart -->
  <rect x="80" y="668" width="640" height="126" rx="10" fill="#0d1018" stroke="#222" stroke-width="1"/>
  <text x="104" y="692" font-family="Arial" font-size="10" fill="#555" letter-spacing="1">SHOPIFY REVENUE · SINCE HERITAGE STARTED</text>

  <!-- Grid -->
  <line x1="104" y1="778" x2="696" y2="778" stroke="#1a2030" stroke-width="1"/>
  <line x1="104" y1="754" x2="696" y2="754" stroke="#1a2030" stroke-width="1"/>
  <line x1="104" y1="730" x2="696" y2="730" stroke="#1a2030" stroke-width="1"/>
  <line x1="104" y1="706" x2="696" y2="706" stroke="#1a2030" stroke-width="1"/>

  <!-- Chart line + fill -->
  <polygon points="104,778 160,776 230,770 300,758 370,740 440,718 520,702 600,692 680,686 700,684 700,780 104,780" fill="url(#chartfill)"/>
  <polyline points="104,778 160,776 230,770 300,758 370,740 440,718 520,702 600,692 680,686" fill="none" stroke="#f5d98b" stroke-width="2.5" stroke-linecap="round"/>
  <circle cx="680" cy="686" r="6" fill="#f5d98b" filter="url(#glow)"/>

  <!-- Heritage start marker -->
  <line x1="220" y1="698" x2="220" y2="782" stroke="#c9a84c" stroke-width="1.5" stroke-dasharray="4,3"/>
  <rect x="182" y="693" width="110" height="16" rx="4" fill="#c9a84c"/>
  <text x="237" y="704" text-anchor="middle" font-family="Arial" font-size="8" font-weight="bold" fill="#1a1a2e">▶ $5/HR STARTS</text>

  <!-- X labels -->
  <text x="104" y="792" text-anchor="middle" font-family="Arial" font-size="9" fill="#444">Mo 1</text>
  <text x="230" y="792" text-anchor="middle" font-family="Arial" font-size="9" fill="#444">Mo 2</text>
  <text x="360" y="792" text-anchor="middle" font-family="Arial" font-size="9" fill="#444">Mo 3</text>
  <text x="490" y="792" text-anchor="middle" font-family="Arial" font-size="9" fill="#444">Mo 4</text>
  <text x="620" y="792" text-anchor="middle" font-family="Arial" font-size="9" fill="#444">Mo 5</text>

  <!-- Side traffic sources -->
  <rect x="736" y="668" width="264" height="126" rx="10" fill="#0d1018" stroke="#222" stroke-width="1"/>
  <text x="868" y="692" text-anchor="middle" font-family="Arial" font-size="10" fill="#555" letter-spacing="1">AD TRAFFIC SOURCES</text>
  <text x="756" y="718" font-family="Arial" font-size="11" fill="#888">Google Shopping</text>
  <rect x="756" y="724" width="140" height="7" rx="3" fill="#4285f4" opacity="0.8"/>
  <text x="990" y="730" text-anchor="end" font-family="Arial" font-size="10" fill="#4285f4">41%</text>
  <text x="756" y="752" font-family="Arial" font-size="11" fill="#888">Meta / Instagram</text>
  <rect x="756" y="758" width="116" height="7" rx="3" fill="#e1306c" opacity="0.8"/>
  <text x="990" y="764" text-anchor="end" font-family="Arial" font-size="10" fill="#e1306c">34%</text>
  <text x="756" y="786" font-family="Arial" font-size="11" fill="#888">Google Search</text>
  <rect x="756" y="792" width="76" height="7" rx="3" fill="#34a853" opacity="0.8"/>
  <text x="990" y="798" text-anchor="end" font-family="Arial" font-size="10" fill="#34a853">25%</text>

  <!-- CTA -->
  <rect x="160" y="836" width="760" height="72" rx="36" fill="url(#gold)"/>
  <text x="540" y="873" text-anchor="middle" font-family="Georgia, serif" font-size="24" font-weight="bold" fill="#1a1a2e">Hire Us for $5/Hour Today →</text>
  <text x="540" y="896" text-anchor="middle" font-family="Arial" font-size="13" fill="#1a1a2e" opacity="0.7">Google + Meta Ads · D2C Growth · No long-term contract</text>

  <!-- Bottom bar -->
  <rect x="0" y="932" width="1080" height="148" fill="#04060e"/>
  <line x1="60" y1="946" x2="1020" y2="946" stroke="#c9a84c" stroke-width="1" opacity="0.1"/>
  <text x="540" y="988" text-anchor="middle" font-family="Arial" font-size="12" fill="#444" letter-spacing="2">$5/HOUR · GOOGLE ADS + META ADS · US D2C BRANDS</text>
  <text x="540" y="1030" text-anchor="middle" font-family="Georgia, serif" font-size="18" letter-spacing="4" fill="#c9a84c">HERITAGE APPARELS</text>
  <text x="540" y="1060" text-anchor="middle" font-family="Arial" font-size="11" fill="#333">heritageapparels.com/us/services/performance-marketing</text>
</svg>
