<svg width="1080" height="1080" viewBox="0 0 1080 1080" xmlns="http://www.w3.org/2000/svg">
  <defs>
    <linearGradient id="bg" x1="0%" y1="0%" x2="100%" y2="100%">
      <stop offset="0%" style="stop-color:#060a14"/>
      <stop offset="50%" style="stop-color:#1a1a2e"/>
      <stop offset="100%" style="stop-color:#0d1b3e"/>
    </linearGradient>
    <linearGradient id="gold" x1="0%" y1="0%" x2="100%" y2="0%">
      <stop offset="0%" style="stop-color:#c9a84c"/>
      <stop offset="50%" style="stop-color:#f5d98b"/>
      <stop offset="100%" style="stop-color:#c9a84c"/>
    </linearGradient>
    <linearGradient id="chartfill" x1="0%" y1="0%" x2="0%" y2="100%">
      <stop offset="0%" style="stop-color:#96bf48" stop-opacity="0.4"/>
      <stop offset="100%" style="stop-color:#96bf48" stop-opacity="0.02"/>
    </linearGradient>
    <filter id="glow">
      <feGaussianBlur stdDeviation="5" result="coloredBlur"/>
      <feMerge><feMergeNode in="coloredBlur"/><feMergeNode in="SourceGraphic"/></feMerge>
    </filter>
    <filter id="softglow">
      <feGaussianBlur stdDeviation="28" result="coloredBlur"/>
      <feMerge><feMergeNode in="coloredBlur"/><feMergeNode in="SourceGraphic"/></feMerge>
    </filter>
  </defs>

  <rect width="1080" height="1080" fill="url(#bg)"/>
  <ellipse cx="540" cy="460" rx="500" ry="380" fill="#c9a84c" opacity="0.04" filter="url(#softglow)"/>

  <!-- Top label -->
  <text x="540" y="58" text-anchor="middle" font-family="Arial" font-size="12" fill="#c9a84c" letter-spacing="3" opacity="0.7">DAILY BREAKDOWN · $5/HOUR · US D2C BRAND</text>

  <!-- Headline -->
  <text x="540" y="136" text-anchor="middle" font-family="Georgia, serif" font-size="48" font-weight="bold" fill="#f8f4ef">8 Hours of Expert</text>
  <text x="540" y="194" text-anchor="middle" font-family="Georgia, serif" font-size="48" font-weight="bold" fill="#f8f4ef">Ad Management =</text>
  <text x="540" y="268" text-anchor="middle" font-family="Georgia, serif" font-size="96" font-weight="bold" fill="url(#gold)" filter="url(#glow)" letter-spacing="-2">$40</text>
  <text x="540" y="314" text-anchor="middle" font-family="Arial" font-size="18" fill="#888">Here's everything we do in a single day for your D2C brand.</text>

  <!-- Divider -->
  <rect x="180" y="334" width="720" height="2" fill="url(#gold)" rx="1" opacity="0.4"/>

  <!-- Daily task timeline - left side -->
  <rect x="60" y="354" width="580" height="430" rx="16" fill="#080e1c" stroke="#c9a84c" stroke-width="1" stroke-opacity="0.25"/>
  <text x="350" y="384" text-anchor="middle" font-family="Arial" font-size="12" fill="#c9a84c" letter-spacing="2">WHAT HERITAGE DOES DAILY FOR YOUR BRAND</text>

  <!-- Task items with time -->
  <rect x="80" y="396" width="540" height="52" rx="8" fill="#0d1420"/>
  <rect x="80" y="396" width="5" height="52" rx="3" fill="#4285f4"/>
  <text x="100" y="418" font-family="Arial" font-size="11" fill="#4285f4" letter-spacing="1">9:00 AM · GOOGLE ADS</text>
  <text x="100" y="438" font-family="Arial" font-size="13" fill="#f8f4ef">Review campaign performance · Adjust bids for ROAS targets</text>

  <rect x="80" y="456" width="540" height="52" rx="8" fill="#0d1420"/>
  <rect x="80" y="456" width="5" height="52" rx="3" fill="#1877f2"/>
  <text x="100" y="478" font-family="Arial" font-size="11" fill="#1877f2" letter-spacing="1">10:00 AM · META ADS</text>
  <text x="100" y="498" font-family="Arial" font-size="13" fill="#f8f4ef">Check ad fatigue · Pause losers · Scale winning creatives</text>

  <rect x="80" y="516" width="540" height="52" rx="8" fill="#0d1420"/>
  <rect x="80" y="516" width="5" height="52" rx="3" fill="#e1306c"/>
  <text x="100" y="538" font-family="Arial" font-size="11" fill="#e1306c" letter-spacing="1">11:30 AM · AUDIENCE WORK</text>
  <text x="100" y="558" font-family="Arial" font-size="13" fill="#f8f4ef">Build new lookalike audiences · Update retargeting lists</text>

  <rect x="80" y="576" width="540" height="52" rx="8" fill="#0d1420"/>
  <rect x="80" y="576" width="5" height="52" rx="3" fill="#fbbc04"/>
  <text x="100" y="598" font-family="Arial" font-size="11" fill="#fbbc04" letter-spacing="1">1:00 PM · CREATIVE TESTING</text>
  <text x="100" y="618" font-family="Arial" font-size="13" fill="#f8f4ef">Launch new A/B test · Analyse previous winning hooks</text>

  <rect x="80" y="636" width="540" height="52" rx="8" fill="#0d1420"/>
  <rect x="80" y="636" width="5" height="52" rx="3" fill="#96bf48"/>
  <text x="100" y="658" font-family="Arial" font-size="11" fill="#96bf48" letter-spacing="1">3:00 PM · SHOPIFY SYNC</text>
  <text x="100" y="678" font-family="Arial" font-size="13" fill="#f8f4ef">Check conversion data · Update product feed · Landing page review</text>

  <rect x="80" y="696" width="540" height="52" rx="8" fill="#0d1420"/>
  <rect x="80" y="696" width="5" height="52" rx="3" fill="#9b59b6"/>
  <text x="100" y="718" font-family="Arial" font-size="11" fill="#9b59b6" letter-spacing="1">4:30 PM · COMPETITOR WATCH</text>
  <text x="100" y="738" font-family="Arial" font-size="13" fill="#f8f4ef">Monitor competitor ads · Spot gaps · Steal winning angles</text>

  <rect x="80" y="756" width="540" height="18" rx="5" fill="#c9a84c" opacity="0.15"/>
  <text x="350" y="769" text-anchor="middle" font-family="Arial" font-size="10" fill="#c9a84c">Total: 8 hrs · Cost: $40 · Revenue generated: avg $2,480 on that day</text>

  <!-- Right side: Shopify live dashboard -->
  <rect x="660" y="354" width="360" height="430" rx="16" fill="#0f1117" stroke="#96bf48" stroke-width="1.5" stroke-opacity="0.5"/>

  <!-- Shopify header -->
  <rect x="660" y="354" width="360" height="40" rx="10" fill="#1a1f2e"/>
  <rect x="678" y="366" width="16" height="16" rx="4" fill="#96bf48"/>
  <text x="686" y="378" text-anchor="middle" font-family="Arial" font-size="9" font-weight="bold" fill="#fff">S</text>
  <text x="706" y="378" font-family="Arial" font-size="10" fill="#888">Shopify · Live</text>
  <circle cx="990" cy="374" r="5" fill="#96bf48"/>
  <text x="1000" y="378" font-family="Arial" font-size="9" fill="#96bf48"> LIVE</text>

  <!-- Today's numbers -->
  <text x="840" y="416" text-anchor="middle" font-family="Arial" font-size="10" fill="#555" letter-spacing="1">TODAY'S SALES</text>
  <text x="840" y="456" text-anchor="middle" font-family="Georgia, serif" font-size="48" font-weight="bold" fill="#96bf48" filter="url(#glow)">$2,480</text>
  <text x="840" y="480" text-anchor="middle" font-family="Arial" font-size="11" fill="#96bf48">32 orders today ↑</text>

  <line x1="680" y1="496" x2="1000" y2="496" stroke="#1a2030" stroke-width="1"/>

  <!-- Hourly chart -->
  <text x="840" y="518" text-anchor="middle" font-family="Arial" font-size="10" fill="#555" letter-spacing="1">REVENUE BY HOUR</text>

  <!-- Mini bar chart by hour -->
  <rect x="688" y="620" width="24" height="32" rx="3" fill="#96bf48" opacity="0.4"/>
  <rect x="720" y="606" width="24" height="46" rx="3" fill="#96bf48" opacity="0.5"/>
  <rect x="752" y="580" width="24" height="72" rx="3" fill="#96bf48" opacity="0.6"/>
  <rect x="784" y="560" width="24" height="92" rx="3" fill="#96bf48" opacity="0.7"/>
  <rect x="816" y="545" width="24" height="107" rx="3" fill="#96bf48" opacity="0.75"/>
  <rect x="848" y="530" width="24" height="122" rx="3" fill="#96bf48" opacity="0.8"/>
  <rect x="880" y="518" width="24" height="134" rx="3" fill="#96bf48" opacity="0.85"/>
  <rect x="912" y="510" width="24" height="142" rx="3" fill="#96bf48" opacity="0.9"/>
  <rect x="944" y="535" width="24" height="117" rx="3" fill="#96bf48" opacity="0.8"/>
  <rect x="976" y="548" width="24" height="104" rx="3" fill="#96bf48" opacity="0.7"/>

  <text x="700" y="668" text-anchor="middle" font-family="Arial" font-size="8" fill="#444">9am</text>
  <text x="764" y="668" text-anchor="middle" font-family="Arial" font-size="8" fill="#444">11am</text>
  <text x="828" y="668" text-anchor="middle" font-family="Arial" font-size="8" fill="#444">1pm</text>
  <text x="892" y="668" text-anchor="middle" font-family="Arial" font-size="8" fill="#444">3pm</text>
  <text x="964" y="668" text-anchor="middle" font-family="Arial" font-size="8" fill="#444">5pm</text>

  <line x1="680" y1="680" x2="1000" y2="680" stroke="#1a2030" stroke-width="1"/>

  <!-- Bottom stats in shopify panel -->
  <text x="760" y="706" text-anchor="middle" font-family="Arial" font-size="11" fill="#888">Google Ads</text>
  <text x="760" y="724" text-anchor="middle" font-family="Georgia, serif" font-size="16" font-weight="bold" fill="#4285f4">$1,180</text>
  <line x1="840" y1="692" x2="840" y2="730" stroke="#1a2030" stroke-width="1"/>
  <text x="920" y="706" text-anchor="middle" font-family="Arial" font-size="11" fill="#888">Meta Ads</text>
  <text x="920" y="724" text-anchor="middle" font-family="Georgia, serif" font-size="16" font-weight="bold" fill="#1877f2">$1,300</text>

  <line x1="680" y1="738" x2="1000" y2="738" stroke="#1a2030" stroke-width="1"/>
  <text x="840" y="758" text-anchor="middle" font-family="Arial" font-size="11" fill="#555">Mgmt cost today:</text>
  <text x="840" y="774" text-anchor="middle" font-family="Georgia, serif" font-size="20" font-weight="bold" fill="url(#gold)">$40</text>

  <!-- Math callout -->
  <rect x="60" y="804" width="960" height="64" rx="12" fill="#c9a84c" opacity="0.09" stroke="#c9a84c" stroke-width="1" stroke-opacity="0.3"/>
  <text x="540" y="831" text-anchor="middle" font-family="Georgia, serif" font-size="20" fill="#f8f4ef">$40 management cost today →</text>
  <text x="540" y="857" text-anchor="middle" font-family="Georgia, serif" font-size="20" fill="url(#gold)" font-weight="bold">$2,480 in sales · 62× return on management fee</text>

  <!-- CTA -->
  <rect x="190" y="888" width="700" height="68" rx="34" fill="url(#gold)"/>
  <text x="540" y="928" text-anchor="middle" font-family="Georgia, serif" font-size="21" font-weight="bold" fill="#1a1a2e">Start Your $5/Hour Ad Management →</text>

  <!-- Bottom bar -->
  <rect x="0" y="978" width="1080" height="102" fill="#04060e"/>
  <line x1="60" y1="992" x2="1020" y2="992" stroke="#c9a84c" stroke-width="1" opacity="0.1"/>
  <text x="540" y="1030" text-anchor="middle" font-family="Georgia, serif" font-size="17" letter-spacing="4" fill="#c9a84c">HERITAGE APPARELS</text>
  <text x="540" y="1058" text-anchor="middle" font-family="Arial" font-size="11" fill="#333">heritageapparels.com/us/services/performance-marketing</text>
</svg>
